<?xml version="1.0" encoding="UTF-8"?>
<svg width="14" height="14" viewBox="0 0 14 14" version="1.1" xmlns="http://www.w3.org/2000/svg" xmlns:xlink="http://www.w3.org/1999/xlink">
    <g id="ico_view_list" stroke="none" stroke-width="1" fill="none" fill-rule="evenodd">
        <path d="M0,2 L0,0 L2,0 L2,2 L0,2 Z M4,2 L4,0 L14,0 L14,2 L4,2 Z M0,6 L0,4 L2,4 L2,6 L0,6 Z M4,6 L4,4 L14,4 L14,6 L4,6 Z M0,10 L2,10 L2,8 L0,8 L0,10 Z M4,10 L14,10 L14,8 L4,8 L4,10 Z M0,14 L2,14 L2,12 L0,12 L0,14 Z M4,14 L14,14 L14,12 L4,12 L4,14 Z" id="list-[#1496]" fill="#FFFFFF"></path>
    </g>
</svg>