<?xml version="1.0" encoding="UTF-8"?>
<svg width="24" height="22" viewBox="0 0 24 22" version="1.1" xmlns="http://www.w3.org/2000/svg" xmlns:xlink="http://www.w3.org/1999/xlink">
    <g id="ico_gnb_analysis_on" stroke="none" stroke-width="1" fill="none" fill-rule="evenodd">
        <path d="M10.8256276,3 L11.697602,0.887729645 C11.9923096,0.208007812 12.7331543,-1.0658141e-14 13.6430664,-1.0658141e-14 L21.8210272,-1.0658141e-14 C23.0244407,-1.0658141e-14 24,0.887729645 24,2 L24,6 L24,19.5074247 C24,20.884036 23.0294466,22 21.8278309,22 L2.17216909,22 C0.972513227,22 0,20.8818578 0,19.5074247 L0,5.49257535 C0,4.115964 0.970553398,3 2.17216909,3 L10.8256276,3 Z M2.00981813,20 C2.00981813,19.9952941 2.00711473,19.9920121 2,19.9920121 L22,19.9920121 C21.9948474,19.9920121 21.9901819,19.9976764 21.9901819,20 L21.9901819,5 C21.9901819,5.00470587 21.9928853,5.00798787 22,5.00798787 L2,5.00798787 C2.00515258,5.00798787 2.00981813,5.00232364 2.00981813,5 L2.00981813,20 Z" id="Shape" fill="#8CDCFF" fill-rule="nonzero"></path>
    </g>
</svg>