<?xml version="1.0" encoding="UTF-8"?>
<svg width="28" height="36" viewBox="0 0 28 36" version="1.1" xmlns="http://www.w3.org/2000/svg" xmlns:xlink="http://www.w3.org/1999/xlink">
    <defs>
        <path d="M25,12.875 C25,6.20155927 20.0751322,2 14,2 C7.92486775,2 3,6.20155927 3,12.875 C3,19.5484407 14,31 14,31 C14,31 25,19.5484407 25,12.875 Z" id="path-1"></path>
        <filter x="-22.7%" y="-13.8%" width="145.5%" height="134.5%" filterUnits="objectBoundingBox" id="filter-2">
            <feOffset dx="0" dy="1" in="SourceAlpha" result="shadowOffsetOuter1"></feOffset>
            <feGaussianBlur stdDeviation="1.5" in="shadowOffsetOuter1" result="shadowBlurOuter1"></feGaussianBlur>
            <feColorMatrix values="0 0 0 0 0   0 0 0 0 0   0 0 0 0 0  0 0 0 0.4 0" type="matrix" in="shadowBlurOuter1"></feColorMatrix>
        </filter>
    </defs>
    <g id="ico-pin" stroke="none" stroke-width="1" fill="none" fill-rule="evenodd">
        <g id="Path">
            <use fill="black" fill-opacity="1" filter="url(#filter-2)" xlink:href="#path-1"></use>
            <use fill="#FFFFFF" fill-rule="evenodd" xlink:href="#path-1"></use>
        </g>
        <path d="M23,13 C23,7.4771525 18.9705627,4 14,4 C9.02943725,4 5,7.4771525 5,13 C5,18.5228475 14,28 14,28 C14,28 23,18.5228475 23,13 Z" id="Path" fill="#EA5725"></path>
        <path d="M17,13 C17,11.3431458 15.6568542,10 14,10 C12.3431458,10 11,11.3431458 11,13 C11,14.6568542 12.3431458,16 14,16 C15.6568542,16 17,14.6568542 17,13 Z" id="Path" fill="#FFFFFF"></path>
    </g>
</svg>