<?xml version="1.0" encoding="UTF-8"?>
<svg width="24" height="24" viewBox="0 0 24 24" version="1.1" xmlns="http://www.w3.org/2000/svg" xmlns:xlink="http://www.w3.org/1999/xlink">
    <g id="ico_gnb_report_off" stroke="none" stroke-width="1" fill="none" fill-rule="evenodd">
        <path d="M16,20.0642434 L16,23.2 C16,23.6418278 15.6418278,24 15.2,24 L0.800000012,24 C0.358172205,24 5.41083009e-17,23.6418278 0,23.2 L0,4.80000001 C-5.41083009e-17,4.35817221 0.358172205,4 0.800000012,4 L8,4 L8,0.800000012 C8,0.358172205 8.35817221,-2.98598511e-17 8.80000001,0 L23.2,0 C23.6418278,-1.92184754e-16 24,0.358172205 24,0.800000012 L24,19.2642434 C24,19.7060712 23.6418278,20.0642434 23.2,20.0642434 L16,20.0642434 Z M16,18 L22,18 L22,2 L10,2 L10,4 L11.5857864,4 C11.8510029,4 12.1053568,4.10535684 12.2928932,4.29289322 L15.7071068,7.70710678 C15.8946432,7.89464316 16,8.14899707 16,8.41421356 L16,18 Z M2,6 L2,22 L14,22 L14,10 L11,10 C10.4477153,10 10,9.55228475 10,9 L10,6 L2,6 Z M4,9 L8,9 L8,11 L4,11 L4,9 Z M4,13 L12,13 L12,15 L4,15 L4,13 Z M4,17 L12,17 L12,19 L4,19 L4,17 Z" id="Combined-Shape" fill="#FFFFFF"></path>
    </g>
</svg>