<?xml version="1.0" encoding="UTF-8"?>
<svg width="16" height="16" viewBox="0 0 16 16" version="1.1" xmlns="http://www.w3.org/2000/svg" xmlns:xlink="http://www.w3.org/1999/xlink">
    <g id="ico_set_off" stroke="none" stroke-width="1" fill="none" fill-rule="evenodd">
        <path d="M4.32316046,13.5624576 L3.76177585,14.1238422 C3.49898714,14.3866309 3.0769561,14.3906646 2.81013373,14.1238422 L1.87615777,13.1898663 C1.61336905,12.9270776 1.6093354,12.5050465 1.87615777,12.2382241 L2.43786759,11.6765143 C1.96829304,10.964676 1.63856887,10.1681852 1.46739803,9.33333333 L0.672912598,9.33333333 C0.301273232,9.33333333 3.11951576e-16,9.03776455 2.42634642e-16,8.66042074 L0,7.33957926 C-6.82690439e-17,6.9679399 0.295568784,6.66666667 0.672912598,6.66666667 L1.46669949,6.66666667 C1.55453251,6.23859547 1.6859765,5.8128761 1.86330098,5.39512581 C2.02490145,5.01441895 2.21773243,4.65652458 2.43754237,4.32316046 L1.87615777,3.76177585 C1.61336905,3.49898714 1.6093354,3.0769561 1.87615777,2.81013373 L2.81013373,1.87615777 C3.07292245,1.61336905 3.49495348,1.6093354 3.76177585,1.87615777 L4.32348568,2.43786759 C5.035324,1.96829304 5.83181483,1.63856887 6.66666667,1.46739803 L6.66666667,0.672912598 C6.66666667,0.301273232 6.96223545,0 7.33957926,0 L8.66042074,0 C9.0320601,0 9.33333333,0.295568784 9.33333333,0.672912598 L9.33333333,1.46669949 C9.76140453,1.55453251 10.1871239,1.6859765 10.6048742,1.86330098 C10.9855811,2.02490145 11.3434754,2.21773243 11.6768395,2.43754237 L12.2382241,1.87615777 C12.5010129,1.61336905 12.9230439,1.6093354 13.1898663,1.87615777 L14.1238422,2.81013373 C14.3866309,3.07292245 14.3906646,3.49495348 14.1238422,3.76177585 L13.5621324,4.32348568 C14.031707,5.035324 14.3614311,5.83181483 14.532602,6.66666667 L15.3270874,6.66666667 C15.6987268,6.66666667 16,6.96223545 16,7.33957926 L16,8.66042074 C16,9.0320601 15.7044312,9.33333333 15.3270874,9.33333333 L14.5333005,9.33333333 C14.4454675,9.76140453 14.3140235,10.1871239 14.136699,10.6048742 C13.9750985,10.9855811 13.7822676,11.3434754 13.5624576,11.6768395 L14.1238422,12.2382241 C14.3866309,12.5010129 14.3906646,12.9230439 14.1238422,13.1898663 L13.1898663,14.1238422 C12.9270776,14.3866309 12.5050465,14.3906646 12.2382241,14.1238422 L11.6765143,13.5621324 C10.964676,14.031707 10.1681852,14.3614311 9.33333333,14.532602 L9.33333333,15.3270874 C9.33333333,15.6987268 9.03776455,16 8.66042074,16 L7.33957926,16 C6.9679399,16 6.66666667,15.7044312 6.66666667,15.3270874 L6.66666667,14.5333005 C6.23859547,14.4454675 5.8128761,14.3140235 5.39512581,14.136699 C5.01441895,13.9750985 4.65652458,13.7822676 4.32316046,13.5624576 Z M8,12.0818282 C10.2543315,12.0818282 12.0818282,10.2543315 12.0818282,8 C12.0818282,5.74566853 10.2543315,3.9181718 8,3.9181718 C5.74566853,3.9181718 3.9181718,5.74566853 3.9181718,8 C3.9181718,10.2543315 5.74566853,12.0818282 8,12.0818282 Z M8,10 C6.8954305,10 6,9.1045695 6,8 C6,6.8954305 6.8954305,6 8,6 C9.1045695,6 10,6.8954305 10,8 C10,9.1045695 9.1045695,10 8,10 Z" id="ico_set" fill="#FFFFFF"></path>
    </g>
</svg>