<?xml version="1.0" encoding="UTF-8"?>
<svg width="20" height="24" viewBox="0 0 20 24" version="1.1" xmlns="http://www.w3.org/2000/svg" xmlns:xlink="http://www.w3.org/1999/xlink">
    <g id="ico_lock" stroke="none" stroke-width="1" fill="none" fill-rule="evenodd">
        <path d="M3,10 L3,7 C3,3.13400675 6.13400675,7.10171439e-16 10,0 C13.8659932,-7.10171439e-16 17,3.13400675 17,7 L17,10 L18,10 C19.1045695,10 20,10.8954305 20,12 L20,22 C20,23.1045695 19.1045695,24 18,24 L2,24 C0.8954305,24 1.3527075e-16,23.1045695 0,22 L0,12 C-1.3527075e-16,10.8954305 0.8954305,10 2,10 L3,10 Z M3,12 C2.44771525,12 2,12.4477153 2,13 L2,21 C2,21.5522847 2.44771525,22 3,22 L17,22 C17.5522847,22 18,21.5522847 18,21 L18,13 C18,12.4477153 17.5522847,12 17,12 L3,12 Z M10,2 C7.23857625,2 5,4.23857625 5,7 L5,10 L15,10 L15,7 C15,4.23857625 12.7614237,2 10,2 Z M12,16 C12,14.8954305 11.1045695,14 10,14 C8.8954305,14 8,14.8954305 8,16 C8,16.7402824 8.40219863,17.3866262 9,17.7324356 L9,18.9988126 C9,19.5517531 9.44386482,20 10,20 L10,20 C10.5522847,20 11,19.5520022 11,18.9988126 L11,17.7324356 C11.5978014,17.3866262 12,16.7402824 12,16 Z" fill="#FFFFFF" fill-rule="nonzero"></path>
    </g>
</svg>