<?xml version="1.0" encoding="UTF-8"?>
<svg width="16" height="16" viewBox="0 0 16 16" version="1.1" xmlns="http://www.w3.org/2000/svg" xmlns:xlink="http://www.w3.org/1999/xlink">
    <g id="ico_noti_on" stroke="none" stroke-width="1" fill="none" fill-rule="evenodd">
        <path d="M13.6,9 L2.4,9 L2.4,6.33333333 C2.4,3.68543461 4.55880704,1.51827743 7.3,1.3445645 L7.3,0.672912598 C7.3,0.301273232 7.61070538,0 8,0 C8.38659932,0 8.7,0.295568784 8.7,0.672912598 L8.7,1.34462902 C11.4367629,1.51902961 13.6,3.69101061 13.6,6.33333333 L13.6,9 Z M14.4324115,11 L15,11.708252 L15,12.3389895 C15,12.7040555 14.6812861,13 14.3057378,13 L1.69426218,13 C1.31083176,13 1,12.6994485 1,12.3387448 L1,11.645752 L1.56915797,11 L14.4324115,11 Z M8,16 C6.61497035,16 5.43668459,15.1651924 5,14 L11,14 C10.5633154,15.1651924 9.38502965,16 8,16 Z" id="Combined-Shape" fill="#8CDCFF"></path>
    </g>
</svg>