<?xml version="1.0" encoding="UTF-8"?>
<svg width="12" height="20" viewBox="0 0 12 20" version="1.1" xmlns="http://www.w3.org/2000/svg" xmlns:xlink="http://www.w3.org/1999/xlink">
    <g id="carpe01" stroke="none" stroke-width="1" fill="none" fill-rule="evenodd">
        <g transform="translate(-544.000000, -742.000000)" fill="#666666" fill-rule="nonzero" id="Group-13">
            <g transform="translate(541.000000, 631.000000)">
                <path d="M3.41563388,112.651055 L5.0598777,111.295237 C5.26179018,111.128743 5.55792863,111.146114 5.73899053,111.335073 L14.668528,120.654071 C14.8538391,120.847464 14.8538391,121.152536 14.668528,121.345929 L5.73899053,130.664927 C5.55792863,130.853886 5.26179018,130.871257 5.0598777,130.704763 L3.41563388,129.348945 C3.20258159,129.173265 3.17228506,128.858136 3.34796469,128.645084 C3.35586569,128.635502 3.36412094,128.626218 3.37271327,128.617251 L10.3401512,121.345929 C10.5254622,121.152536 10.5254622,120.847464 10.3401512,120.654071 L3.37271327,113.382749 C3.18166191,113.183365 3.18841688,112.866855 3.38780091,112.675804 C3.39676799,112.667211 3.40605208,112.658956 3.41563388,112.651055 Z" id="arrow" transform="translate(9.000000, 121.000000) scale(-1, 1) translate(-9.000000, -121.000000) "></path>
            </g>
        </g>
    </g>
</svg>