<?xml version="1.0" encoding="UTF-8"?>
<svg width="14" height="12" viewBox="0 0 14 12" version="1.1" xmlns="http://www.w3.org/2000/svg" xmlns:xlink="http://www.w3.org/1999/xlink">
    <g id="ico_arr_first_off" stroke="none" stroke-width="1" fill="none" fill-rule="evenodd">
        <path d="M6.2093809,1.56472793 C6.29418128,1.50415623 6.39578851,1.47159466 6.5,1.47159466 C6.77614237,1.47159466 7,1.69545229 7,1.97159466 L7,10.0284053 C7,10.1326168 6.96743843,10.2342241 6.90686674,10.3190244 C6.74636224,10.5437307 6.4340872,10.5957766 6.2093809,10.4352721 L0.56961343,6.40686674 C0.524715669,6.37479691 0.48543562,6.33551686 0.453365791,6.2906191 C0.292861296,6.0659128 0.344907137,5.75363776 0.56961343,5.59313326 L6.2093809,1.56472793 Z M13.2093809,1.56472793 C13.2941813,1.50415623 13.3957885,1.47159466 13.5,1.47159466 C13.7761424,1.47159466 14,1.69545229 14,1.97159466 L14,10.0284053 C14,10.1326168 13.9674384,10.2342241 13.9068667,10.3190244 C13.7463622,10.5437307 13.4340872,10.5957766 13.2093809,10.4352721 L7.56961343,6.40686674 C7.52471567,6.37479691 7.48543562,6.33551686 7.45336579,6.2906191 C7.2928613,6.0659128 7.34490714,5.75363776 7.56961343,5.59313326 L13.2093809,1.56472793 Z" id="Combined-Shape" fill="#666666"></path>
    </g>
</svg>