<?xml version="1.0" encoding="UTF-8"?>
<svg width="24" height="24" viewBox="0 0 24 24" version="1.1" xmlns="http://www.w3.org/2000/svg" xmlns:xlink="http://www.w3.org/1999/xlink">
    <g id="Symbols" stroke="none" stroke-width="1" fill="none" fill-rule="evenodd">
        <g id="ico_ing_on" fill="#FFFFFF" fill-rule="nonzero">
            <path d="M24,12 C24,18.627417 18.627417,24 12,24 C5.372583,24 0,18.627417 0,12 C0,6.77509477 3.33926875,2.33011756 8.00008007,0.682794531 L8.00059079,2.83182926 C4.46846569,4.37480761 2,7.89913328 2,12 C2,17.5228475 6.4771525,22 12,22 C17.5228475,22 22,17.5228475 22,12 C22,7.89952169 19.5320019,4.37547523 16.0004128,2.83226775 L16.0009157,0.683146541 C20.6612069,2.3307507 24,6.77546689 24,12 Z M9.67540271,10 C10.3381488,10 10.868448,10.205574 11.2663002,10.6167221 C11.6641524,11.0278701 11.8630785,11.5995909 11.8630785,12.3318844 C11.8630785,13.0580414 11.6656865,13.6261826 11.2709026,14.0363078 C10.8761186,14.4464331 10.3483764,14.6514958 9.68767579,14.6514958 C9.01879315,14.6514958 8.48695986,14.4474559 8.09217591,14.0393761 C7.69739197,13.6312963 7.5,13.0692917 7.5,12.3533623 C7.5,11.8951675 7.56852467,11.5106111 7.70557402,11.1996932 C7.80784965,10.9705958 7.94745589,10.7650217 8.12439274,10.5829711 C8.30132958,10.4009205 8.49514191,10.2659166 8.70582971,10.1779596 C8.98606495,10.0593199 9.30925594,10 9.67540271,10 Z M13.4647149,10.0767067 L15.3056763,13.0805421 L15.3056763,10.0767067 L16.1494503,10.0767067 L16.1494503,14.5747891 L15.2381744,14.5747891 L13.4248274,11.6415239 L13.4248274,14.5747891 L12.5810534,14.5747891 L12.5810534,10.0767067 L13.4647149,10.0767067 Z M9.68460752,10.7762721 C9.3102787,10.7762721 9.00856558,10.904628 8.77946817,11.1613398 C8.55037075,11.4180516 8.43582204,11.8051649 8.43582204,12.3226796 C8.43582204,12.8320123 8.55343902,13.2181028 8.78867297,13.4809512 C9.02390693,13.7437995 9.32255178,13.8752237 9.68460752,13.8752237 C10.0466633,13.8752237 10.343774,13.7448223 10.5759397,13.4840194 C10.8081053,13.2232166 10.9241882,12.8320123 10.9241882,12.3104065 C10.9241882,11.7949374 10.8111736,11.410381 10.5851445,11.1567374 C10.3591153,10.9030938 10.0589363,10.7762721 9.68460752,10.7762721 Z M12,0 C12.5522847,-1.01453063e-16 13,0.44771525 13,1 L13,5 C13,5.55228475 12.5522847,6 12,6 C11.4477153,6 11,5.55228475 11,5 L11,1 C11,0.44771525 11.4477153,1.01453063e-16 12,0 Z"></path>
        </g>
    </g>
</svg>