<?xml version="1.0" encoding="UTF-8"?>
<svg width="24" height="24" viewBox="0 0 24 24" version="1.1" xmlns="http://www.w3.org/2000/svg" xmlns:xlink="http://www.w3.org/1999/xlink">
    <g id="ico_gnb_recovery_off" stroke="none" stroke-width="1" fill="none" fill-rule="evenodd">
        <path d="M22,0 C22.5522847,0 23,0.44771525 23,1 L23,23 C23,23.5522847 22.5522847,24 22,24 L2,24 C1.44771525,24 1,23.5522847 1,23 L1,1 C1,0.44771525 1.44771525,0 2,0 L22,0 Z M21,2 L3,2 L3,22 L21,22 L21,2 Z M5,5 C5.55228475,5 6,4.55228475 6,4 C6,3.44771525 5.55228475,3 5,3 C4.44771525,3 4,3.44771525 4,4 C4,4.55228475 4.44771525,5 5,5 Z M19,5 C19.5522847,5 20,4.55228475 20,4 C20,3.44771525 19.5522847,3 19,3 C18.4477153,3 18,3.44771525 18,4 C18,4.55228475 18.4477153,5 19,5 Z M5,21 C5.55228475,21 6,20.5522847 6,20 C6,19.4477153 5.55228475,19 5,19 C4.44771525,19 4,19.4477153 4,20 C4,20.5522847 4.44771525,21 5,21 Z M19,19 C19.5522847,19 20,19.4477153 20,20 C20,20.5522847 19.5522847,21 19,21 C18.4477153,21 18,20.5522847 18,20 C18,19.4477153 18.4477153,19 19,19 Z M12,5 C15.8659932,5 19,8.13400675 19,12 C19,15.8659932 15.8659932,19 12,19 C8.13400675,19 5,15.8659932 5,12 C5,8.13400675 8.13400675,5 12,5 Z M12,12 L10.5857864,10.5857864 C10.9477153,10.2238576 11.4477153,10 12,10 C13.1045695,10 14,10.8954305 14,12 C14,13.1045695 13.1045695,14 12,14 C11.2171615,14 10.5393723,13.5502303 10.2109451,12.8950037 L8.42198255,13.7901914 C9.07887152,15.1005449 10.4343963,16 12,16 C14.209139,16 16,14.209139 16,12 C16,9.790861 14.209139,8 12,8 C10.8954305,8 9.8954305,8.44771525 9.17157288,9.17157288 L8,8 L8,12 L12,12 Z" id="Rectangle" fill="#FFFFFF" fill-rule="nonzero"></path>
    </g>
</svg>