<?xml version="1.0" encoding="UTF-8"?>
<svg width="16" height="16" viewBox="0 0 16 16" version="1.1" xmlns="http://www.w3.org/2000/svg" xmlns:xlink="http://www.w3.org/1999/xlink">
    <g id="ico_case_out" stroke="none" stroke-width="1" fill="none" fill-rule="evenodd">
        <path d="M6.29271645,7.70710678 L5.29289322,6.70728355 L6.99982323,5.00035354 L5.29289322,3.29271645 L6.29271645,2.29289322 L7.99964646,3.99982323 L9.70657646,2.29289322 L10.7071068,3.29271645 L8.99946968,5.00035354 L10.7071068,6.70728355 L9.70657646,7.70710678 L7.99964646,6.00017677 L6.29271645,7.70710678 Z M13.6,8 L13.6,5.5336 L14.4,8 L13.6,8 Z M14.4,13.5336 C14.4,13.9752 14.0424,14.4 13.6,14.4 L2.4,14.4 C1.9584,14.4 1.6,13.9752 1.6,13.5336 L1.6,9.6 L4,9.6 C4.4424,9.6 4.8,9.8912 4.8,10.3336 L4.8,11.1336 C4.8,12.0168 5.5168,12.8 6.4,12.8 L9.6,12.8 C10.484,12.8 11.2,12.0168 11.2,11.1336 L11.2,10.3336 C11.2,9.8912 11.5584,9.6 12,9.6 L14.4,9.6 L14.4,13.5336 Z M2.4,5.5336 L2.4,8 L1.6,8 L2.4,5.5336 Z M4,2.3336 C4,1.8912 4.3584,1.6 4.8,1.6 L11.2,1.6 C11.6424,1.6 12,1.8912 12,2.3336 L12,8 L11.2,8 C10.3168,8 9.6,8.6496 9.6,9.5336 L9.6,10.3336 C9.6,10.7752 9.2424,11.2 8.8,11.2 L7.2,11.2 C6.7584,11.2 6.4,10.7752 6.4,10.3336 L6.4,9.5336 C6.4,8.6496 5.684,8 4.8,8 L4,8 L4,2.3336 Z M14.4,3.2 L13.6,3.2 L13.6,1.5336 C13.6,0.6496 12.884,0 12,0 L4,0 C3.1168,0 2.4,0.6496 2.4,1.5336 L2.4,3.2 L1.6,3.2 L0,7.9336 L0,14.3336 C0,15.2168 0.7168,16 1.6,16 L14.4,16 C15.284,16 16,15.2168 16,14.3336 L16,7.9336 L14.4,3.2 Z" id="inbox_close_round-[#1547]" fill="#FFFFFF"></path>
    </g>
</svg>