<?xml version="1.0" encoding="UTF-8"?>
<svg width="16" height="20" viewBox="0 0 16 20" version="1.1" xmlns="http://www.w3.org/2000/svg" xmlns:xlink="http://www.w3.org/1999/xlink">
    <defs>
        <linearGradient x1="50%" y1="99.6178785%" x2="50%" y2="0%" id="linearGradient-1">
            <stop stop-color="#E6E6E6" offset="0.0765413851%"></stop>
            <stop stop-color="#FFFFFF" offset="100%"></stop>
        </linearGradient>
        <linearGradient x1="50%" y1="0%" x2="50%" y2="100%" id="linearGradient-2">
            <stop stop-color="#BCBCBC" offset="0%"></stop>
            <stop stop-color="#848484" offset="100%"></stop>
        </linearGradient>
        <linearGradient x1="50%" y1="0%" x2="50%" y2="100%" id="linearGradient-3">
            <stop stop-color="#BCBCBC" offset="0%"></stop>
            <stop stop-color="#ABABAB" offset="100%"></stop>
        </linearGradient>
    </defs>
    <g id="carpe01" stroke="none" stroke-width="1" fill="none" fill-rule="evenodd">
        <g transform="translate(-543.000000, -631.000000)" id="Group-13">
            <g transform="translate(541.000000, 631.000000)">
                <g id="report" transform="translate(2.000000, -0.000032)">
                    <path d="M15,0.500032092 L5.04509368,0.64712437 L0.5,5.41540661 L1,19.5000321 L15.5,19.0000321 L15,0.500032092 Z" id="Path" stroke="url(#linearGradient-2)" fill="url(#linearGradient-1)" transform="translate(8.000000, 10.000032) scale(-1, 1) translate(-8.000000, -10.000032) "></path>
                    <path d="M15.4142136,0.500032092 C15.2816053,0.500032092 15.1544284,0.552710512 15.0606602,0.646478701 L10.6464466,5.06069226 C10.5526784,5.15446045 10.5,5.28163741 10.5,5.41424565 L10.5,5.50003209 L15,5.50003209 C15.1380712,5.50003209 15.2630712,5.44406769 15.3535534,5.35358548 C15.4440356,5.26310328 15.5,5.13810328 15.5,5.00003209 L15.4142136,0.500032092 Z" id="Path" stroke="url(#linearGradient-3)" fill="#FFFFFF" transform="translate(13.000000, 3.000032) scale(-1, 1) translate(-13.000000, -3.000032) "></path>
                    <path d="M12.3432654,14.0000321 C12.6194078,14.0000321 12.8432654,14.2238897 12.8432654,14.5000321 C12.8432654,14.7761745 12.6194078,15.0000321 12.3432654,15.0000321 L12.3432654,15.0000321 L3.5,15.0000321 C3.22385763,15.0000321 3,14.7761745 3,14.5000321 C3,14.2238897 3.22385763,14.0000321 3.5,14.0000321 L3.5,14.0000321 Z M12.3432654,11.0000321 C12.6194078,11.0000321 12.8432654,11.2238897 12.8432654,11.5000321 C12.8432654,11.7761745 12.6194078,12.0000321 12.3432654,12.0000321 L12.3432654,12.0000321 L3.5,12.0000321 C3.22385763,12.0000321 3,11.7761745 3,11.5000321 C3,11.2238897 3.22385763,11.0000321 3.5,11.0000321 L3.5,11.0000321 Z M12.3432654,8.00003209 C12.6194078,8.00003209 12.8432654,8.22388972 12.8432654,8.50003209 C12.8432654,8.77617447 12.6194078,9.00003209 12.3432654,9.00003209 L12.3432654,9.00003209 L3.5,9.00003209 C3.22385763,9.00003209 3,8.77617447 3,8.50003209 C3,8.22388972 3.22385763,8.00003209 3.5,8.00003209 L3.5,8.00003209 Z" id="Combined-Shape" fill="#858585" fill-rule="nonzero"></path>
                </g>
            </g>
        </g>
    </g>
</svg>