<?xml version="1.0" encoding="UTF-8"?>
<svg width="14px" height="14px" viewBox="0 0 14 14" version="1.1" xmlns="http://www.w3.org/2000/svg" xmlns:xlink="http://www.w3.org/1999/xlink">
    <!-- Generator: Sketch 55.2 (78181) - https://sketchapp.com -->
    <title>ico_search</title>
    <desc>Created with Sketch.</desc>
    <g id="ico_search" stroke="none" stroke-width="1" fill="none" fill-rule="evenodd">
        <path d="M10.9275033,9.53456319 L14,12.5849242 L12.5755239,13.9991378 L9.48609146,10.931963 C8.50922526,11.6053325 7.32277257,12 6.04354034,12 C2.70599519,12 6.57252031e-14,9.3135 6.57252031e-14,6 C6.57252031e-14,2.6865 2.70599519,-1.33226763e-14 6.04354034,-1.33226763e-14 C9.38108549,-1.33226763e-14 12.0870807,2.6865 12.0870807,6 C12.0870807,7.32145669 11.6566939,8.54318943 10.9275033,9.53456319 Z M2.01451345,6 C2.01451345,8.206 3.82220351,10 6.04354034,10 C8.26487717,10 10.0725672,8.206 10.0725672,6 C10.0725672,3.79466667 8.26487717,2 6.04354034,2 C3.82220351,2 2.01451345,3.79466667 2.01451345,6 Z" id="search_left-[#1504]" fill="#FFFFFF"></path>
    </g>
</svg>