<?xml version="1.0" encoding="UTF-8"?>
<svg width="24" height="24" viewBox="0 0 24 24" version="1.1" xmlns="http://www.w3.org/2000/svg" xmlns:xlink="http://www.w3.org/1999/xlink">
    <g id="ico_gnb_evidence_on" stroke="none" stroke-width="1" fill="none" fill-rule="evenodd">
        <path d="M0.800000012,0 L23.2,0 C23.6418278,-8.11624513e-17 24,0.358172205 24,0.800000012 L24,23.2 C24,23.6418278 23.6418278,24 23.2,24 L0.800000012,24 C0.358172205,24 5.41083009e-17,23.6418278 0,23.2 L0,0.800000012 C-5.41083009e-17,0.358172205 0.358172205,8.11624513e-17 0.800000012,0 Z M2,2 L2,22 L22,22 L22,2 L2,2 Z M5.79289322,6.5 L7.20710678,5.08578644 C7.59763107,4.69526215 8.23079605,4.69526215 8.62132034,5.08578644 C9.01184464,5.47631073 9.01184464,6.10947571 8.62132034,6.5 L6.5,8.62132034 C6.10947571,9.01184464 5.47631073,9.01184464 5.08578644,8.62132034 L4.37867966,7.91421356 C3.98815536,7.52368927 3.98815536,6.89052429 4.37867966,6.5 C4.76920395,6.10947571 5.40236893,6.10947571 5.79289322,6.5 Z M5.79289322,11.5 L7.20710678,10.0857864 C7.59763107,9.69526215 8.23079605,9.69526215 8.62132034,10.0857864 C9.01184464,10.4763107 9.01184464,11.1094757 8.62132034,11.5 L6.5,13.6213203 C6.10947571,14.0118446 5.47631073,14.0118446 5.08578644,13.6213203 L4.37867966,12.9142136 C3.98815536,12.5236893 3.98815536,11.8905243 4.37867966,11.5 C4.76920395,11.1094757 5.40236893,11.1094757 5.79289322,11.5 Z M5.79289322,16.5 L7.20710678,15.0857864 C7.59763107,14.6952621 8.23079605,14.6952621 8.62132034,15.0857864 C9.01184464,15.4763107 9.01184464,16.1094757 8.62132034,16.5 L6.5,18.6213203 C6.10947571,19.0118446 5.47631073,19.0118446 5.08578644,18.6213203 L4.37867966,17.9142136 C3.98815536,17.5236893 3.98815536,16.8905243 4.37867966,16.5 C4.76920395,16.1094757 5.40236893,16.1094757 5.79289322,16.5 Z M11,6 L19,6 L19,8 L11,8 L11,6 Z M11,11 L19,11 L19,13 L11,13 L11,11 Z M11,16 L19,16 L19,18 L11,18 L11,16 Z" id="Combined-Shape" fill="#8CDCFF"></path>
    </g>
</svg>