<?xml version="1.0" encoding="UTF-8"?>
<svg width="24" height="24" viewBox="0 0 24 24" version="1.1" xmlns="http://www.w3.org/2000/svg" xmlns:xlink="http://www.w3.org/1999/xlink">
    <g id="ico_gnb_visualization_off" stroke="none" stroke-width="1" fill="none" fill-rule="evenodd">
        <path d="M1,0 L23,0 C23.5522847,0 24,0.44771525 24,1 L24,23 C24,23.5522847 23.5522847,24 23,24 L1,24 C0.44771525,24 0,23.5522847 0,23 L0,1 C0,0.44771525 0.44771525,0 1,0 Z M2,2 L2,22 L22,22 L22,2 L2,2 Z M5,10.9953976 C5,10.4456547 5.44386482,10 6,10 C6.55228475,10 7,10.4556644 7,10.9953976 L7,20 L5,20 L5,10.9953976 Z M9,5.00087166 C9,4.4481055 9.44386482,4 10,4 C10.5522847,4 11,4.44463086 11,5.00087166 L11,20 L9,20 L9,5.00087166 Z M13,14.990778 C13,14.4435864 13.4438648,14 14,14 C14.5522847,14 15,14.4509752 15,14.990778 L15,20 L13,20 L13,14.990778 Z M17,9.00247329 C17,8.44882258 17.4438648,8 18,8 C18.5522847,8 19,8.45576096 19,9.00247329 L19,20 L17,20 L17,9.00247329 Z" id="Rectangle" fill="#FFFFFF" fill-rule="nonzero"></path>
    </g>
</svg>