<?xml version="1.0" encoding="UTF-8"?>
<svg width="24" height="24" viewBox="0 0 24 24" version="1.1" xmlns="http://www.w3.org/2000/svg" xmlns:xlink="http://www.w3.org/1999/xlink">
    <g id="Symbols" stroke="none" stroke-width="1" fill="none" fill-rule="evenodd">
        <g id="ico_ing_onoff" fill="#FFFFFF" fill-rule="nonzero">
            <path d="M24,12 C24,18.627417 18.627417,24 12,24 C5.372583,24 0,18.627417 0,12 C0,6.77509477 3.33926875,2.33011756 8.00008007,0.682794531 L8.00059079,2.83182926 C4.46846569,4.37480761 2,7.89913328 2,12 C2,17.5228475 6.4771525,22 12,22 C17.5228475,22 22,17.5228475 22,12 C22,7.89952169 19.5320019,4.37547523 16.0004128,2.83226775 L16.0009157,0.683146541 C20.6612069,2.3307507 24,6.77546689 24,12 Z M8.17540271,13.2838149 C8.83814881,13.2838149 9.36844797,13.4893889 9.76630018,13.9005369 C10.1641524,14.311685 10.3630785,14.8834058 10.3630785,15.6156993 C10.3630785,16.3418563 10.1656865,16.9099974 9.77090258,17.3201227 C9.37611864,17.730248 8.84837637,17.9353107 8.18767579,17.9353107 C7.51879315,17.9353107 6.98695986,17.7312708 6.59217591,17.323191 C6.19739197,16.9151112 6,16.3531066 6,15.6371772 C6,15.1789824 6.06852467,14.794426 6.20557402,14.4835081 C6.30784965,14.2544106 6.44745589,14.0488366 6.62439274,13.866786 C6.80132958,13.6847354 6.99514191,13.5497315 7.20582971,13.4617745 C7.48606495,13.3431347 7.80925594,13.2838149 8.17540271,13.2838149 Z M14.1615955,13.3605216 L14.1615955,14.1214523 L11.9861928,14.1214523 L11.9861928,15.1861417 L13.8639734,15.1861417 L13.8639734,15.9470724 L11.9861928,15.9470724 L11.9861928,17.8586039 L11.0779852,17.8586039 L11.0779852,13.3605216 L14.1615955,13.3605216 Z M18,13.3605216 L18,14.1214523 L15.8245973,14.1214523 L15.8245973,15.1861417 L17.7023779,15.1861417 L17.7023779,15.9470724 L15.8245973,15.9470724 L15.8245973,17.8586039 L14.9163897,17.8586039 L14.9163897,13.3605216 L18,13.3605216 Z M8.18460752,14.0600869 C7.8102787,14.0600869 7.50856558,14.1884429 7.27946817,14.4451547 C7.05037075,14.7018665 6.93582204,15.0889798 6.93582204,15.6064945 C6.93582204,16.1158272 7.05343902,16.5019177 7.28867297,16.764766 C7.52390693,17.0276144 7.82255178,17.1590386 8.18460752,17.1590386 C8.54666326,17.1590386 8.84377397,17.0286372 9.07593966,16.7678343 C9.30810534,16.5070314 9.42418819,16.1158272 9.42418819,15.5942214 C9.42418819,15.0787522 9.31117361,14.6941959 9.08514446,14.4405523 C8.85911532,14.1869087 8.55893633,14.0600869 8.18460752,14.0600869 Z M9.7448223,7 C10.4075684,7 10.9378676,7.20557402 11.3357198,7.61672207 C11.733572,8.02787011 11.9324981,8.5995909 11.9324981,9.33188443 C11.9324981,10.0580414 11.7351061,10.6261826 11.3403222,11.0363078 C10.9455382,11.4464331 10.417796,11.6514958 9.75709537,11.6514958 C9.08821273,11.6514958 8.55637944,11.4474559 8.1615955,11.0393761 C7.76681156,10.6312963 7.56941959,10.0692917 7.56941959,9.35336231 C7.56941959,8.89516748 7.63794426,8.5106111 7.77499361,8.19969317 C7.87726924,7.97059576 8.01687548,7.76502173 8.19381232,7.58297111 C8.37074917,7.40092048 8.56456149,7.26591665 8.7752493,7.1779596 C9.05548453,7.05931987 9.37867553,7 9.7448223,7 Z M13.5341345,7.07670672 L15.3750959,10.0805421 L15.3750959,7.07670672 L16.2188699,7.07670672 L16.2188699,11.5747891 L15.307594,11.5747891 L13.494247,8.64152391 L13.494247,11.5747891 L12.650473,11.5747891 L12.650473,7.07670672 L13.5341345,7.07670672 Z M9.7540271,7.77627205 C9.37969829,7.77627205 9.07798517,7.90462797 8.84888775,8.16133981 C8.61979033,8.41805165 8.50524163,8.80516492 8.50524163,9.32267962 C8.50524163,9.83201227 8.6228586,10.2181028 8.85809256,10.4809512 C9.09332651,10.7437995 9.39197136,10.8752237 9.7540271,10.8752237 C10.1160828,10.8752237 10.4131936,10.7448223 10.6453592,10.4840194 C10.8775249,10.2232166 10.9936078,9.83201227 10.9936078,9.31040655 C10.9936078,8.79493736 10.8805932,8.41038098 10.6545641,8.15673741 C10.4285349,7.90309384 10.1283559,7.77627205 9.7540271,7.77627205 Z M12,0 C12.5522847,-1.01453063e-16 13,0.44771525 13,1 L13,5 C13,5.55228475 12.5522847,6 12,6 C11.4477153,6 11,5.55228475 11,5 L11,1 C11,0.44771525 11.4477153,1.01453063e-16 12,0 Z"></path>
        </g>
    </g>
</svg>