<?xml version="1.0" encoding="UTF-8"?>
<svg width="20" height="20" viewBox="0 0 20 20" version="1.1" xmlns="http://www.w3.org/2000/svg" xmlns:xlink="http://www.w3.org/1999/xlink">
    <g id="ico_calendar" fill="currentColor" fill-rule="nonzero">
        <path d="M17.5,0 C17.7761424,0 18,0.173313602 18,0.387106764 L18,0.387106764 L18,1 L19,1 C19.5128358,1 19.9355072,1.38604019 19.9932723,1.88337887 L20,2 L20,19 C20,19.5128358 19.6139598,19.9355072 19.1166211,19.9932723 L19,20 L1,20 C0.487164161,20 0.0644928393,19.6139598 0.00672773133,19.1166211 L0,19 L0,2 C0,1.48716416 0.38604019,1.06449284 0.883378875,1.00672773 L1,1 L2,1 L2,0.387106764 C2,0.197068398 2.17687516,0.0390138814 2.41012437,0.00623680824 L2.5,0 C2.77614237,0 3,0.173313602 3,0.387106764 L3,0.387106764 L3,1 L7,1 L7,0.387106764 C7,0.197068398 7.17687516,0.0390138814 7.41012437,0.00623680824 L7.5,0 C7.77614237,0 8,0.173313602 8,0.387106764 L8,0.387106764 L8,1 L12,1 L12,0.387106764 C12,0.197068398 12.1768752,0.0390138814 12.4101244,0.00623680824 L12.5,0 C12.7761424,0 13,0.173313602 13,0.387106764 L13,0.387106764 L13,1 L17,1 L17,0.387106764 C17,0.197068398 17.1768752,0.0390138814 17.4101244,0.00623680824 Z M19,5 L1,5 L1,19 L19,19 L19,5 Z M4.99944063,15 L4.99944063,17 L3,17 L3,15 L4.99944063,15 Z M8.99944063,15 L8.99944063,17 L7,17 L7,15 L8.99944063,15 Z M4.99944063,11 L4.99944063,13 L3,13 L3,11 L4.99944063,11 Z M8.99944063,11 L8.99944063,13 L7,13 L7,11 L8.99944063,11 Z M12.9994406,11 L12.9994406,13 L11,13 L11,11 L12.9994406,11 Z M16.9994406,11 L16.9994406,13 L15,13 L15,11 L16.9994406,11 Z M12.9994406,7 L12.9994406,9 L11,9 L11,7 L12.9994406,7 Z M16.9994406,7 L16.9994406,9 L15,9 L15,7 L16.9994406,7 Z M2,2.006 L1,2.00699187 L1,4.00699187 L19,4.00699187 L19,2.00699187 L18,2.006 L18,2.61289324 C18,2.8029316 17.8231248,2.96098612 17.5898756,2.99376319 L17.5,3 C17.2238576,3 17,2.8266864 17,2.61289324 L17,2.61289324 L17,2.006 L13,2.006 L13,2.61289324 C13,2.8029316 12.8231248,2.96098612 12.5898756,2.99376319 L12.5,3 C12.2238576,3 12,2.8266864 12,2.61289324 L12,2.61289324 L12,2.006 L8,2.006 L8,2.61289324 C8,2.8029316 7.82312484,2.96098612 7.58987563,2.99376319 L7.5,3 C7.22385763,3 7,2.8266864 7,2.61289324 L7,2.61289324 L7,2.006 L3,2.006 L3,2.61289324 C3,2.8029316 2.82312484,2.96098612 2.58987563,2.99376319 L2.5,3 C2.22385763,3 2,2.8266864 2,2.61289324 L2,2.61289324 L2,2.006 Z" id="cal"></path>
    </g>
</svg>