<?xml version="1.0" encoding="UTF-8"?>
<svg width="24" height="24" viewBox="0 0 24 24" version="1.1" xmlns="http://www.w3.org/2000/svg" xmlns:xlink="http://www.w3.org/1999/xlink">
    <g id="Symbols" stroke="none" stroke-width="1" fill="none" fill-rule="evenodd">
        <g id="ico_ing_off" fill="#FFFFFF" fill-rule="nonzero">
            <path d="M24,12 C24,18.627417 18.627417,24 12,24 C5.372583,24 0,18.627417 0,12 C0,6.77509477 3.33926875,2.33011756 8.00008007,0.682794531 L8.00059079,2.83182926 C4.46846569,4.37480761 2,7.89913328 2,12 C2,17.5228475 6.4771525,22 12,22 C17.5228475,22 22,17.5228475 22,12 C22,7.89952169 19.5320019,4.37547523 16.0004128,2.83226775 L16.0009157,0.683146541 C20.6612069,2.3307507 24,6.77546689 24,12 Z M8.17540271,10 C8.83814881,10 9.36844797,10.205574 9.76630018,10.6167221 C10.1641524,11.0278701 10.3630785,11.5995909 10.3630785,12.3318844 C10.3630785,13.0580414 10.1656865,13.6261826 9.77090258,14.0363078 C9.37611864,14.4464331 8.84837637,14.6514958 8.18767579,14.6514958 C7.51879315,14.6514958 6.98695986,14.4474559 6.59217591,14.0393761 C6.19739197,13.6312963 6,13.0692917 6,12.3533623 C6,11.8951675 6.06852467,11.5106111 6.20557402,11.1996932 C6.30784965,10.9705958 6.44745589,10.7650217 6.62439274,10.5829711 C6.80132958,10.4009205 6.99514191,10.2659166 7.20582971,10.1779596 C7.48606495,10.0593199 7.80925594,10 8.17540271,10 Z M14.1615955,10.0767067 L14.1615955,10.8376374 L11.9861928,10.8376374 L11.9861928,11.9023268 L13.8639734,11.9023268 L13.8639734,12.6632575 L11.9861928,12.6632575 L11.9861928,14.5747891 L11.0779852,14.5747891 L11.0779852,10.0767067 L14.1615955,10.0767067 Z M18,10.0767067 L18,10.8376374 L15.8245973,10.8376374 L15.8245973,11.9023268 L17.7023779,11.9023268 L17.7023779,12.6632575 L15.8245973,12.6632575 L15.8245973,14.5747891 L14.9163897,14.5747891 L14.9163897,10.0767067 L18,10.0767067 Z M8.18460752,10.7762721 C7.8102787,10.7762721 7.50856558,10.904628 7.27946817,11.1613398 C7.05037075,11.4180516 6.93582204,11.8051649 6.93582204,12.3226796 C6.93582204,12.8320123 7.05343902,13.2181028 7.28867297,13.4809512 C7.52390693,13.7437995 7.82255178,13.8752237 8.18460752,13.8752237 C8.54666326,13.8752237 8.84377397,13.7448223 9.07593966,13.4840194 C9.30810534,13.2232166 9.42418819,12.8320123 9.42418819,12.3104065 C9.42418819,11.7949374 9.31117361,11.410381 9.08514446,11.1567374 C8.85911532,10.9030938 8.55893633,10.7762721 8.18460752,10.7762721 Z M12,0 C12.5522847,-1.01453063e-16 13,0.44771525 13,1 L13,5 C13,5.55228475 12.5522847,6 12,6 C11.4477153,6 11,5.55228475 11,5 L11,1 C11,0.44771525 11.4477153,1.01453063e-16 12,0 Z"></path>
        </g>
    </g>
</svg>