<?xml version="1.0" encoding="UTF-8"?>
<svg width="16" height="16" viewBox="0 0 16 16" version="1.1" xmlns="http://www.w3.org/2000/svg" xmlns:xlink="http://www.w3.org/1999/xlink">
    <g id="ico_logout_on" stroke="none" stroke-width="1" fill="none" fill-rule="evenodd">
        <path d="M2.86620558,14.0009766 L7,14.0009766 L7,16 L1.78026273,16 C0.797780235,16 5.59552404e-14,15.2019478 5.59552404e-14,14.2191304 L5.59552404e-14,1.78086957 C5.59552404e-14,0.79693913 0.797780235,3.55271368e-15 1.78026273,3.55271368e-15 L7,3.55271368e-15 L7,2 L2.86620558,2 C2.374408,2 1.97607422,2.40384066 1.97607422,2.89580588 L1.97607422,13.1105418 C1.97607422,13.602507 2.374408,14.0009766 2.86620558,14.0009766 Z M15.6155457,8.32037862 L10.3844543,12.6796214 C10.1730976,12.855752 10,12.7782068 10,12.504611 L10,10 L6.49047852,10 C6.21505737,10 6,9.78040529 6,9.50952148 L6,6.49047852 C6,6.21505737 6.21959471,6 6.49047852,6 L10,6 L10,3.49538898 C10,3.2157526 10.1721261,3.14343839 10.3844543,3.32037862 L15.6155457,7.67962138 C15.8269024,7.85575199 15.8278739,8.14343839 15.6155457,8.32037862 Z" id="ico_logout" fill="#8CDCFF"></path>
    </g>
</svg>