<?xml version="1.0" encoding="UTF-8"?>
<svg width="14" height="12" viewBox="0 0 14 12" version="1.1" xmlns="http://www.w3.org/2000/svg" xmlns:xlink="http://www.w3.org/1999/xlink">
    <g id="ico_arr_last_on" stroke="none" stroke-width="1" fill="none" fill-rule="evenodd">
        <path d="M0.790619097,1.56472793 L6.43038657,5.59313326 C6.65509286,5.75363776 6.7071387,6.0659128 6.54663421,6.2906191 C6.51456438,6.33551686 6.47528433,6.37479691 6.43038657,6.40686674 L0.790619097,10.4352721 C0.565912804,10.5957766 0.25363776,10.5437307 0.0931332644,10.3190244 C0.0325615671,10.2342241 -1.22682758e-15,10.1326168 0,10.0284053 L0,1.97159466 C-4.22395746e-16,1.69545229 0.223857625,1.47159466 0.5,1.47159466 C0.604211488,1.47159466 0.705818721,1.50415623 0.790619097,1.56472793 Z M7.7906191,1.56472793 L13.4303866,5.59313326 C13.6550929,5.75363776 13.7071387,6.0659128 13.5466342,6.2906191 C13.5145644,6.33551686 13.4752843,6.37479691 13.4303866,6.40686674 L7.7906191,10.4352721 C7.5659128,10.5957766 7.25363776,10.5437307 7.09313326,10.3190244 C7.03256157,10.2342241 7,10.1326168 7,10.0284053 L7,1.97159466 C7,1.69545229 7.22385763,1.47159466 7.5,1.47159466 C7.60421149,1.47159466 7.70581872,1.50415623 7.7906191,1.56472793 Z" id="Combined-Shape" fill="#3CB4F0"></path>
    </g>
</svg>