<?xml version="1.0" encoding="UTF-8"?>
<svg width="24" height="24" viewBox="0 0 24 24" version="1.1" xmlns="http://www.w3.org/2000/svg" xmlns:xlink="http://www.w3.org/1999/xlink">
    <g id="ico_gnb_overview_on" stroke="none" stroke-width="1" fill="none" fill-rule="evenodd">
        <path d="M0.800000012,13 L10.2,13 C10.6418278,13 11,13.3581722 11,13.8 L11,23.2 C11,23.6418278 10.6418278,24 10.2,24 L0.800000012,24 C0.358172205,24 5.41083009e-17,23.6418278 0,23.2 L0,13.8 C-5.41083009e-17,13.3581722 0.358172205,13 0.800000012,13 Z M0.800000012,0 L10.2,0 C10.6418278,-8.11624513e-17 11,0.358172205 11,0.800000012 L11,10.2 C11,10.6418278 10.6418278,11 10.2,11 L0.800000012,11 C0.358172205,11 5.41083009e-17,10.6418278 0,10.2 L0,0.800000012 C-5.41083009e-17,0.358172205 0.358172205,8.11624513e-17 0.800000012,0 Z M13.8,0 L23.2,0 C23.6418278,-8.11624513e-17 24,0.358172205 24,0.800000012 L24,10.2 C24,10.6418278 23.6418278,11 23.2,11 L13.8,11 C13.3581722,11 13,10.6418278 13,10.2 L13,0.800000012 C13,0.358172205 13.3581722,8.11624513e-17 13.8,0 Z M13.8,13 L23.2,13 C23.6418278,13 24,13.3581722 24,13.8 L24,23.2 C24,23.6418278 23.6418278,24 23.2,24 L13.8,24 C13.3581722,24 13,23.6418278 13,23.2 L13,13.8 C13,13.3581722 13.3581722,13 13.8,13 Z M15,15 L15,22 L22,22 L22,15 L15,15 Z M15,2 L15,9 L22,9 L22,2 L15,2 Z M2,2 L2,9 L9,9 L9,2 L2,2 Z M2,15 L2,22 L9,22 L9,15 L2,15 Z" id="Combined-Shape" fill="#8CDCFF"></path>
    </g>
</svg>