<?xml version="1.0" encoding="UTF-8"?>
<svg width="18" height="18" viewBox="0 0 18 18" version="1.1" xmlns="http://www.w3.org/2000/svg" xmlns:xlink="http://www.w3.org/1999/xlink">
    <g id="Take_off" fill="#FFFFFF">
        <path d="M12.3180119,0.63 C16.3343208,2.22165103 18.6533405,6.44232328 17.8431399,10.6858672 C17.0329393,14.9294112 13.3220571,17.9988216 9.0018615,17.9988216 C4.68166586,17.9988216 0.970783677,14.9294112 0.160583066,10.6858672 C-0.649617545,6.44232328 1.6694022,2.22165103 5.68571113,0.63 L5.68571113,0.63 L5.68571113,2.18385332 C2.51086455,3.72852296 0.822971201,7.26065642 1.61553304,10.7012234 C2.40809488,14.1417903 5.47118804,16.5794964 9.0018615,16.5794964 C12.532535,16.5794964 15.5956281,14.1417903 16.38819,10.7012234 C17.1807518,7.26065642 15.4928585,3.72852296 12.3180119,2.18385332 L12.3180119,2.18385332 Z M9,0 C9.55613518,0 10,0.446385598 10,0.997030139 L10,0.997030139 L10,7.00296986 C10,7.54696369 9.55228475,7.99889861 9,7.99753998 L9,7.99753998 L8.88266744,7.99054771 C8.38272018,7.93175969 8,7.50966132 8,6.99866299 L8,6.99866299 L8,0.996416959 C8,0.452757688 8.44771525,0 9,0 Z" id="off"></path>
    </g>
</svg>