<?xml version="1.0" encoding="utf-8"?>
<svg version="1.1" id="레이어_1" xmlns="http://www.w3.org/2000/svg" xmlns:xlink="http://www.w3.org/1999/xlink" x="0px"
	 y="0px" viewBox="0 0 200 24" style="enable-background:new 0 0 200 24;" xml:space="preserve">
<style type="text/css">
	.st0{fill:#FFFFFF;}
</style>
<g>
	<path class="st0" d="M31.5,17.5h5.1V24h-7.3h-22c-2,0-3.8-0.6-5.2-1.8C0.7,21.1,0,19.7,0,18V6c0-1.6,0.7-3.1,2.1-4.2
		C3.6,0.6,5.3,0,7.3,0l22,0l7.3,0v6.4H10.8c-1.4,0-2.5,0.3-3.5,0.9C6.4,7.9,5.9,8.7,5.8,9.6v4.6c0,0.9,0.5,1.6,1.4,2.3
		c0.9,0.7,2.1,1,3.5,1H26H31.5z"/>
	<path class="st0" d="M61.2,9.3l-2.1-3H52L56.2,0h3h3l15.4,24h-5.8l-6.6-9.2H62h-3.5h-5.1L46.7,24h-5.8l9.5-14.7h6.6H61.2z"/>
	<path class="st0" d="M104.6,14.8H87.5v2.7V24h-5.8v-6V9.1h30.6V6.4H81.7V0H89l22,0c2.1,0,3.8,0.5,5.2,1.5c1.4,1.1,2.1,2.6,2.1,4.8
		v2.7c0,2.1-0.6,3.6-1.8,4.4c-1.2,0.9-3.1,1.3-5.5,1.3l7.4,9.2H112L104.6,14.8z"/>
	<path class="st0" d="M122.5,6.4V0h7.3l22,0c2.1,0,3.8,0.5,5.2,1.5c1.4,1.1,2.1,2.6,2.1,4.8v2.7c0,2.1-0.6,3.6-1.8,4.4
		c-1.2,0.9-3.1,1.3-5.5,1.3h-23.5v2.7V24h-5.8v-6V9.1h30.6V6.4H122.5z"/>
	<path class="st0" d="M163.3,6.4V6c0-1.6,0.7-3.1,2.1-4.2c1.4-1.2,3.2-1.8,5.2-1.8l22,0l7.3,0v6.4h-25.9H172H163.3z M194.9,17.5h5.1
		V24h-7.3h-22c-2,0-3.8-0.6-5.2-1.8c-1.4-1.2-2.1-2.6-2.1-4.2V9.1H200v5.7h-30.8v2.7h4.9h15.3H194.9z"/>
</g>
</svg>
